<svg xmlns="http://www.w3.org/2000/svg"  viewBox="0 0 48 48" width="48px" height="48px" baseProfile="basic"><path fill="#23c76d" d="M32.951,32.837l3.66-7.996c0.116-0.268,0.174-0.555,0.167-0.841h-9.511H9v10h22.135 C31.916,34,32.625,33.545,32.951,32.837z"/><path fill="#63cc5b" d="M27.268,24l4.954,9.678c0.275-0.178,0.494-0.432,0.656-0.727l3.726-8.087 c0.245-0.547,0.234-1.175-0.034-1.711L27.546,5.106c-0.254-0.508-0.707-0.876-1.237-1.028C26.132,4.027,25.947,4,25.758,4H18.23 c-0.377,0-0.738,0.107-1.047,0.297L27.268,24L27.268,24z"/><path fill="#63cc5b" d="M27.268,24l4.954,9.678c0.275-0.178,0.494-0.432,0.656-0.727l3.726-8.087 c0.245-0.547,0.234-1.175-0.034-1.711L27.546,5.106c-0.254-0.508-0.707-0.876-1.237-1.028C26.132,4.027,25.947,4,25.758,4H18.23 c-0.377,0-0.738,0.107-1.047,0.297L27.268,24L27.268,24z"/><path fill="#030000" d="M27.268,24h-1.124l5.11,9.983c0.347-0.021,0.673-0.135,0.957-0.314L27.268,24z" opacity=".05"/><path fill="#030000" d="M27.268,24h-0.561l5.061,9.888c0.158-0.053,0.304-0.13,0.443-0.219L27.268,24z" opacity=".07"/><path fill="#c7f2d4" d="M43.535,30.724l-1.49-3.066C41.895,27.349,42.14,27,42.506,27h2.987c0.367,0,0.612,0.35,0.461,0.659 l-1.497,3.066C44.278,31.092,43.713,31.092,43.535,30.724z"/><path fill="#9ee8b3" d="M39.686,36.517l-2.607-5.365C36.816,30.611,37.244,30,37.886,30h5.228 c0.643,0,1.071,0.613,0.807,1.154l-2.62,5.365C40.986,37.161,39.998,37.16,39.686,36.517z"/><path fill="#73df92" d="M35.453,42.379l-3.352-6.898C31.763,34.786,32.314,34,33.139,34h6.722 c0.826,0,1.377,0.788,1.037,1.483l-3.369,6.898C37.125,43.207,35.855,43.206,35.453,42.379z"/><path fill="#030000" d="M26.309,4.077c-0.151-0.043-0.311-0.06-0.472-0.066l-4.402,8.593l1.123,2.194 l4.973-9.716C27.275,4.587,26.831,4.227,26.309,4.077z" opacity=".05"/><path fill="#030000" d="M25.837,4.011L25.587,4.5h0.177c0.122,0,0.242,0.015,0.358,0.044l-4.406,8.609 l0.562,1.098l4.924-9.619c-0.245-0.259-0.549-0.455-0.892-0.553C26.158,4.034,25.998,4.018,25.837,4.011z" opacity=".07"/><polygon fill="#030000" points="17.849,24 15.603,24 10.485,34 12.73,34" opacity=".05"/><polygon fill="#030000" points="17.287,24 16.164,24 11.045,34 12.168,34" opacity=".07"/><path fill="#38c78f" d="M25.764,4h-7.528c-0.758,0-1.45,0.428-1.789,1.106L2.236,33.528c-0.148,0.295-0.14,0.644,0.02,0.933 l3.834,6.902c0.386,0.696,1.389,0.681,1.758-0.021L26.811,4.297C26.502,4.107,26.141,4,25.764,4z"/></svg>